#!OML:ASF \\sashay\E\Suitcase\Project 1\Capture day 1\Session 1\Male1.ASF
:FULLY-SPECIFIED
:DEGREES
439
root -0.148833 17.3901 20.4054 5.39762 9.81057 -1.55041
lowerback -0.767886 -0.968072 1.28725
upperback -0.470304 -1.29808 1.99938
thorax -0.0333651 -0.648596 1.31602
lowerneck -8.56682 -1.00434 -4.57726
upperneck 37.7553 1.04336 -3.46997
head 14.4584 -0.596564 -0.450157
rclavicle 1.89094e-014 -1.43125e-014
rhumerus -27.5712 -34.0742 -66.1459
rradius 17.8356
rwrist 0.295318
rhand -13.8968 22.9322
rfingers 7.12502
rthumb 12.2286 -6.69027
lclavicle 1.89094e-014 -1.43125e-014
lhumerus -34.5753 0.519474 87.1832
lradius 30.2094
lwrist -6.17681
lhand -4.87055 42.9496
lfingers 7.12502
lthumb 20.9178 71.8418
rfemur -2.25021 -2.59774 25.3895
rtibia 9.95484
rfoot -11.6944 -17.0893
rtoes 18.557
lfemur -6.52099 -9.04521 -12.8601
ltibia 14.9797
lfoot -14.8945 1.59566
ltoes 0.64775
440
root -0.144298 17.3924 20.3988 5.2667 9.77449 -1.77428
lowerback -0.731986 -0.969154 1.47597
upperback -0.494952 -1.29888 2.03441
thorax -0.0821214 -0.649378 1.24725
lowerneck -8.56848 -0.954326 -4.42455
upperneck 37.9184 1.1157 -3.53847
head 14.5365 -0.556772 -0.498281
rclavicle 1.07841e-014 -2.14687e-014
rhumerus -27.479 -34.3055 -66.0949
rradius 18.3856
rwrist 0.733007
rhand -13.637 23.4926
rfingers 7.12502
rthumb 12.4791 -6.11477
lclavicle 1.07841e-014 -2.14687e-014
lhumerus -34.4709 0.697069 87.0513
lradius 29.7864
lwrist -6.38001
lhand -4.91627 42.9234
lfingers 7.12502
lthumb 20.8739 71.8204
rfemur -2.10202 -2.50476 25.5892
rtibia 9.81285
rfoot -11.5559 -17.0057
rtoes 15.646
lfemur -6.42393 -8.95658 -12.6574
ltibia 14.976
lfoot -14.8951 1.56058
ltoes 1.69115
441
root -0.140741 17.3999 20.3871 5.26778 9.87283 -1.46824
lowerback -0.671409 -1.09278 1.11661
upperback -0.463393 -1.46131 1.99472
thorax -0.0739778 -0.730044 1.40754
lowerneck -8.79272 -0.850384 -4.21506
upperneck 38.0109 1.30251 -3.71209
head 14.6342 -0.475108 -0.583764
rclavicle -1.98288e-014 -7.55382e-015
rhumerus -26.856 -33.9477 -66.4075
rradius 18.8051
rwrist 0.469975
rhand -13.6037 23.1343
rfingers 7.12502
rthumb 12.5112 -6.47119
lclavicle -1.98288e-014 -7.55382e-015
lhumerus -34.4542 1.25899 86.8799
lradius 29.5906
lwrist -6.84443
lhand -4.09799 43.0709
lfingers 7.12502
lthumb 21.6599 71.8793
rfemur -2.05868 -2.59145 25.2144
rtibia 9.75751
rfoot -11.3827 -17.0517
rtoes 16.1294
lfemur -6.35996 -9.13545 -13.0213
ltibia 14.8589
lfoot -14.8553 1.63911
ltoes 1.55091
442
root -0.134706 17.4018 20.3822 5.29196 10.0778 -1.96866
lowerback -0.875711 -1.20505 1.59283
upperback -0.525915 -1.61747 2.23275
thorax -0.027375 -0.808479 1.3802
lowerneck -8.7642 -0.837457 -4.34114
upperneck 38.0195 1.37269 -3.77655
head 14.635 -0.471793 -0.578252
rclavicle -1.37161e-014 1.98785e-015
rhumerus -26.3521 -33.4377 -66.5283
rradius 18.9813
rwrist 0.215241
rhand -13.5965 23.8931
rfingers 7.12502
rthumb 12.5182 -5.7119
lclavicle -1.37161e-014 1.98785e-015
lhumerus -34.402 1.77744 86.8314
lradius 29.3048
lwrist -7.31295
lhand -4.44929 43.0818
lfingers 7.12502
lthumb 21.3225 71.9287
rfemur -2.13988 -2.69349 25.7115
rtibia 9.62757
rfoot -11.4827 -16.9574
rtoes 15.6723
lfemur -6.56236 -9.14757 -12.4571
ltibia 14.8934
lfoot -14.7783 1.52914
ltoes 1.48524
443
root -0.134321 17.4038 20.3719 5.32452 9.89838 -1.45995
lowerback -0.754766 -1.12218 1.03746
upperback -0.644956 -1.49769 2.07718
thorax -0.208336 -0.74782 1.53684
lowerneck -8.45249 -0.833293 -4.12382
upperneck 38.0815 1.35486 -3.89667
head 14.5933 -0.460806 -0.668786
rclavicle 3.21037e-014 -1.90833e-014
rhumerus -26.2758 -32.8584 -66.5814
rradius 19.4459
rwrist -0.459028
rhand -13.4016 24.2632
rfingers 7.12502
rthumb 12.7061 -5.33029
lclavicle 3.21037e-014 -1.90833e-014
lhumerus -34.5597 1.9201 86.735
lradius 28.9521
lwrist -7.68637
lhand -4.57989 42.3624
lfingers 7.12502
lthumb 21.197 71.2235
rfemur -2.15593 -2.52226 25.1557
rtibia 9.73456
rfoot -11.3438 -16.9706
rtoes 16.1196
lfemur -6.43925 -9.09006 -13.0491
ltibia 14.7495
lfoot -15.4881 1.62553
ltoes 1.91376
